<svg width="24" height="20" viewBox="0 0 24 20" fill="none" xmlns="http://www.w3.org/2000/svg">
<path fill-rule="evenodd" clip-rule="evenodd" d="M9.23358 17.9572C9.23358 16.961 8.41124 16.1613 7.38685 16.1613C6.36248 16.1613 5.54012 16.961 5.54012 17.9572C5.54012 18.9534 6.36248 19.7531 7.38685 19.7531C8.41124 19.7531 9.23358 18.9534 9.23358 17.9572ZM22.1607 17.9572C22.1607 16.961 21.3383 16.1613 20.3139 16.1613C19.2895 16.1613 18.4672 16.961 18.4672 17.9572C18.4672 18.9534 19.2895 19.7531 20.3139 19.7531C21.3383 19.7531 22.1607 18.9534 22.1607 17.9572ZM24.0074 2.69359C24.0074 2.20241 23.589 1.79575 23.084 1.79575H5.75655C5.61231 1.12229 5.59781 0 4.6168 0H0.923317C0.418371 0 0 0.406879 0 0.897699C0 1.38885 0.418371 1.79575 0.923317 1.79575H3.86656L6.42024 13.3417C6.21824 13.7482 5.54012 14.8287 5.54012 15.2636C5.54012 15.7548 5.95851 16.1613 6.46353 16.1613H21.2373C21.7423 16.1613 22.1607 15.7548 22.1607 15.2636C22.1607 14.7728 21.7423 14.3658 21.2373 14.3658H7.96399C8.10823 14.0851 8.31026 13.7905 8.31026 13.4681C8.31026 13.1452 8.18035 12.7947 8.12266 12.4857L23.185 10.7745C23.6611 10.7182 24.0074 10.3254 24.0074 9.87629V2.69359Z" fill="white"/>
</svg>
